<svg xmlns="http://www.w3.org/2000/svg" viewBox="0 0 512 512" width="512" height="512">
  <defs>
    <linearGradient id="bg" x1="0" y1="0" x2="1" y2="1">
      <stop offset="0%" stop-color="#a855f7"/>
      <stop offset="100%" stop-color="#7e22ce"/>
    </linearGradient>
  </defs>
  <rect width="512" height="512" fill="url(#bg)"/>
  <g fill="white" transform="translate(96,96)">
    <rect x="0" y="0" width="48" height="320" rx="12"/>
    <rect x="272" y="0" width="48" height="320" rx="12"/>
    <path d="M48 36h80c48 0 88 40 88 88v160h-48V124c0-28-22-48-48-48H48V36z"/>
    <path d="M272 284h-80c-48 0-88-40-88-88V36h48v160c0 28 22 48 48 48h72v40z"/>
  </g>
</svg>
