<svg xmlns="http://www.w3.org/2000/svg" viewBox="0 0 512 512" width="512" height="512">
  <style>
    .bg { fill: #f9fafb; }
    @media (prefers-color-scheme: dark) { .bg { fill: #111827; } }
  </style>
  <rect class="bg" width="512" height="512"/>
  <defs>
    <linearGradient id="sg" x1="0" y1="0" x2="0.3" y2="1">
      <stop offset="0%" stop-color="#c084fc"/>
      <stop offset="100%" stop-color="#7e22ce"/>
    </linearGradient>
  </defs>
  <path d="M256 28 C256 28 72 76 72 76 L72 232 C72 340 160 424 256 484 C352 424 440 340 440 232 L440 76 C440 76 256 28 256 28Z" fill="url(#sg)" stroke="#6b21a8" stroke-width="4"/>
  <g transform="translate(118.5,377.9)" fill="white"><path d="M27.23 0L27.23-92.80Q27.23-100.94 27.48-107.74Q27.72-114.55 28.72-120.94Q29.72-127.33 31.46-133.89Q33.20-140.45 36.19-147.92L36.19-147.92Q31.88-148.42 26.81-149.50Q21.75-150.58 14.11-152.57L14.11-152.57Q15.61-158.71 17.18-164.77Q18.76-170.83 21.08-177.14L21.08-177.14Q28.55-175.64 33.45-174.73Q38.35-173.82 42.33-173.32Q46.32-172.82 50.05-172.66Q53.79-172.49 58.77-172.49L58.77-172.49L125.67-172.49Q136.13-172.49 146.34-170.17Q156.55-167.84 164.69-161.37L164.69-161.37Q172.82-155.06 177.80-143.94Q182.78-132.81 182.78-114.88L182.78-114.88Q182.78-107.58 182.45-101.85Q182.12-96.12 181.54-90.89Q180.96-85.66 179.96-80.43Q178.96-75.21 177.47-69.06L177.47-69.06Q170.33-69.39 163.53-70.39Q156.72-71.39 150.41-73.21L150.41-73.21Q151.24-78.53 151.90-83.17Q152.57-87.82 153.07-92.30Q153.56-96.79 153.81-101.27Q154.06-105.75 154.06-110.73L154.06-110.73Q154.06-121.36 152.57-128.33Q151.07-135.30 147.26-139.54Q143.44-143.77 136.96-145.51Q130.49-147.26 120.69-147.26L120.69-147.26L64.41-147.26Q61.09-140.28 59.35-133.39Q57.61-126.50 56.86-119.86Q56.11-113.22 56.03-106.83Q55.95-100.44 55.95-94.30L55.95-94.30L55.95 0L27.23 0ZM117.71-104.42L117.71-25.23Q120.69-24.90 124.35-24.82Q128.00-24.74 130.82-24.74L130.82-24.74Q154.89-24.74 173.74-32.37Q192.58-40.01 205.61-54.37Q218.64-68.73 225.53-89.40Q232.42-110.07 232.42-136.30L232.42-136.30Q232.42-144.10 231.84-152.32Q231.26-160.54 230.26-169.00L230.26-169.00Q237.24-171.33 243.63-172.74Q250.02-174.15 257.66-175.48L257.66-175.48Q259.15-165.35 259.98-155.72Q260.81-146.09 260.81-136.46L260.81-136.46Q260.81-102.76 251.43-77.03Q242.05-51.30 224.62-33.87Q207.19-16.44 182.37-7.55Q157.55 1.33 126.67 1.33L126.67 1.33Q118.54 1.33 109.32 0.91Q100.11 0.50 91.31-0.66L91.31-0.66L91.31-104.42L117.71-104.42Z"/></g>
</svg>