<svg xmlns="http://www.w3.org/2000/svg" viewBox="0 0 512 512" width="512" height="512">
  <defs>
    <linearGradient id="sg" x1="0" y1="0" x2="0.3" y2="1">
      <stop offset="0%" stop-color="#c084fc"/>
      <stop offset="100%" stop-color="#7e22ce"/>
    </linearGradient>
  </defs>
  <path d="M256 28 C256 28 72 76 72 76 L72 232 C72 340 160 424 256 484 C352 424 440 340 440 232 L440 76 C440 76 256 28 256 28Z" fill="url(#sg)" stroke="#6b21a8" stroke-width="4"/>
  <g transform="translate(134.7,335.6)" fill="white"><path d="M24.02 0L24.02-81.88Q24.02-89.06 24.24-95.07Q24.46-101.07 25.34-106.71Q26.22-112.35 27.76-118.14Q29.30-123.93 31.93-130.52L31.93-130.52Q28.13-130.96 23.66-131.91Q19.19-132.86 12.45-134.62L12.45-134.62Q13.77-140.04 15.16-145.39Q16.55-150.73 18.60-156.30L18.60-156.30Q25.20-154.98 29.52-154.17Q33.84-153.37 37.35-152.93Q40.87-152.49 44.17-152.34Q47.46-152.20 51.86-152.20L51.86-152.20L110.89-152.20Q120.12-152.20 129.13-150.15Q138.13-148.10 145.31-142.38L145.31-142.38Q152.49-136.82 156.88-127.00Q161.28-117.19 161.28-101.37L161.28-101.37Q161.28-94.92 160.99-89.87Q160.69-84.81 160.18-80.20Q159.67-75.59 158.79-70.97Q157.91-66.36 156.59-60.94L156.59-60.94Q150.29-61.23 144.29-62.11Q138.28-62.99 132.71-64.60L132.71-64.60Q133.45-69.29 134.03-73.39Q134.62-77.49 135.06-81.45Q135.50-85.40 135.72-89.36Q135.94-93.31 135.94-97.71L135.94-97.71Q135.94-107.08 134.62-113.23Q133.30-119.38 129.93-123.12Q126.56-126.86 120.85-128.39Q115.14-129.93 106.49-129.93L106.49-129.93L56.84-129.93Q53.91-123.78 52.37-117.70Q50.83-111.62 50.17-105.76Q49.51-99.90 49.44-94.26Q49.37-88.62 49.37-83.20L49.37-83.20L49.37 0L24.02 0ZM103.86-92.14L103.86-22.27Q106.49-21.97 109.72-21.90Q112.94-21.83 115.43-21.83L115.43-21.83Q136.67-21.83 153.30-28.56Q169.92-35.30 181.42-47.97Q192.92-60.64 199.00-78.88Q205.08-97.12 205.08-120.26L205.08-120.26Q205.08-127.15 204.57-134.40Q204.05-141.65 203.17-149.12L203.17-149.12Q209.33-151.17 214.97-152.42Q220.61-153.66 227.34-154.83L227.34-154.83Q228.66-145.90 229.39-137.40Q230.13-128.91 230.13-120.41L230.13-120.41Q230.13-90.67 221.85-67.97Q213.57-45.26 198.19-29.88Q182.81-14.50 160.91-6.67Q139.01 1.17 111.77 1.17L111.77 1.17Q104.59 1.17 96.46 0.81Q88.33 0.44 80.57-0.59L80.57-0.59L80.57-92.14L103.86-92.14Z"/></g>
</svg>