<svg xmlns="http://www.w3.org/2000/svg" viewBox="0 0 512 512" width="512" height="512">
  <defs><linearGradient id="bg" x1="0" y1="0" x2="1" y2="1"><stop offset="0%" stop-color="#a855f7"/><stop offset="100%" stop-color="#7e22ce"/></linearGradient></defs>
  <rect width="512" height="512" fill="url(#bg)"/>
  <g transform="translate(21.5,406.0)" fill="white"><path d="M46.45 0L46.45-158.31Q46.45-172.19 46.87-183.80Q47.29-195.41 48.99-206.31Q50.69-217.22 53.67-228.40Q56.64-239.59 61.74-252.33L61.74-252.33Q54.38-253.18 45.74-255.02Q37.10-256.87 24.07-260.26L24.07-260.26Q26.62-270.74 29.31-281.08Q32.00-291.42 35.97-302.18L35.97-302.18Q48.71-299.63 57.07-298.07Q65.42-296.51 72.22-295.66Q79.01-294.81 85.39-294.53Q91.76-294.25 100.25-294.25L100.25-294.25L214.38-294.25Q232.23-294.25 249.64-290.28Q267.06-286.32 280.94-275.27L280.94-275.27Q294.81-264.51 303.31-245.54Q311.81-226.56 311.81-195.98L311.81-195.98Q311.81-183.52 311.24-173.75Q310.67-163.97 309.68-155.05Q308.69-146.13 306.99-137.21Q305.29-128.29 302.74-117.81L302.74-117.81Q290.57-118.38 278.96-120.08Q267.34-121.78 256.58-124.89L256.58-124.89Q258.00-133.96 259.13-141.88Q260.26-149.81 261.11-157.46Q261.96-165.11 262.39-172.75Q262.81-180.40 262.81-188.90L262.81-188.90Q262.81-207.02 260.26-218.92Q257.71-230.81 251.20-238.03Q244.69-245.25 233.64-248.23Q222.60-251.20 205.89-251.20L205.89-251.20L109.88-251.20Q104.22-239.31 101.25-227.55Q98.27-215.80 97.00-204.47Q95.72-193.14 95.58-182.24Q95.44-171.34 95.44-160.86L95.44-160.86L95.44 0L46.45 0ZM200.79-178.13L200.79-43.05Q205.89-42.48 212.12-42.34Q218.35-42.20 223.16-42.20L223.16-42.20Q264.23-42.20 296.37-55.22Q328.52-68.25 350.75-92.75Q372.98-117.25 384.73-152.50Q396.48-187.76 396.48-232.51L396.48-232.51Q396.48-245.82 395.49-259.84Q394.50-273.86 392.80-288.30L392.80-288.30Q404.70-292.27 415.60-294.67Q426.50-297.08 439.53-299.35L439.53-299.35Q442.08-282.07 443.50-265.64Q444.91-249.22 444.91-232.79L444.91-232.79Q444.91-175.30 428.91-131.41Q412.91-87.51 383.17-57.77Q353.44-28.04 311.10-12.89Q268.76 2.27 216.08 2.27L216.08 2.27Q202.21 2.27 186.49 1.56Q170.77 0.85 155.76-1.13L155.76-1.13L155.76-178.13L200.79-178.13Z"/></g>
</svg>