<svg xmlns="http://www.w3.org/2000/svg" viewBox="0 0 512 512" width="512" height="512">
  <defs><linearGradient id="bg" x1="0" y1="0" x2="1" y2="1"><stop offset="0%" stop-color="#a855f7"/><stop offset="100%" stop-color="#7e22ce"/></linearGradient></defs>
  <rect width="512" height="512" fill="url(#bg)"/>
  <g transform="translate(86.2,364.6)" fill="white"><path d="M33.63 0L33.63-114.64Q33.63-124.69 33.94-133.10Q34.25-141.50 35.48-149.40Q36.71-157.29 38.86-165.40Q41.02-173.50 44.71-182.72L44.71-182.72Q39.38-183.34 33.12-184.67Q26.87-186.01 17.43-188.47L17.43-188.47Q19.28-196.05 21.23-203.54Q23.17-211.03 26.04-218.82L26.04-218.82Q35.27-216.97 41.32-215.84Q47.37-214.72 52.29-214.10Q57.22-213.49 61.83-213.28Q66.45-213.08 72.60-213.08L72.60-213.08L155.24-213.08Q168.16-213.08 180.78-210.21Q193.39-207.33 203.44-199.34L203.44-199.34Q213.49-191.54 219.64-177.80Q225.79-164.06 225.79-141.91L225.79-141.91Q225.79-132.89 225.38-125.82Q224.97-118.74 224.25-112.28Q223.54-105.82 222.30-99.36Q221.07-92.90 219.23-85.31L219.23-85.31Q210.41-85.72 202.00-86.95Q193.59-88.18 185.80-90.44L185.80-90.44Q186.83-97.00 187.65-102.74Q188.47-108.49 189.08-114.02Q189.70-119.56 190.00-125.10Q190.31-130.63 190.31-136.79L190.31-136.79Q190.31-149.91 188.47-158.53Q186.62-167.14 181.90-172.37Q177.19-177.60 169.19-179.75Q161.19-181.90 149.09-181.90L149.09-181.90L79.57-181.90Q75.47-173.29 73.32-164.78Q71.16-156.27 70.24-148.07Q69.32-139.86 69.21-131.97Q69.11-124.07 69.11-116.48L69.11-116.48L69.11 0L33.63 0ZM145.40-128.99L145.40-31.17Q149.09-30.76 153.60-30.66Q158.12-30.56 161.60-30.56L161.60-30.56Q191.34-30.56 214.61-39.99Q237.89-49.42 253.99-67.16Q270.09-84.90 278.60-110.43Q287.11-135.97 287.11-168.37L287.11-168.37Q287.11-178.01 286.39-188.16Q285.67-198.31 284.44-208.77L284.44-208.77Q293.06-211.64 300.95-213.38Q308.85-215.13 318.28-216.77L318.28-216.77Q320.13-204.26 321.15-192.36Q322.18-180.47 322.18-168.57L322.18-168.57Q322.18-126.94 310.59-95.16Q299.00-63.37 277.47-41.84Q255.94-20.30 225.28-9.33Q194.62 1.64 156.47 1.64L156.47 1.64Q146.43 1.64 135.04 1.13Q123.66 0.62 112.79-0.82L112.79-0.82L112.79-128.99L145.40-128.99Z"/></g>
</svg>