<svg xmlns="http://www.w3.org/2000/svg" viewBox="0 0 512 512" width="512" height="512">
  <defs>
    <linearGradient id="bg" x1="0" y1="0" x2="1" y2="1">
      <stop offset="0%" stop-color="#a855f7"/>
      <stop offset="100%" stop-color="#7e22ce"/>
    </linearGradient>
  </defs>
  <rect width="512" height="512" fill="url(#bg)"/>
  <g transform="translate(126.2,404.0)" fill="white">
    <path d="M174.93-78.13L174.93-217.38Q174.93-259.01 157.81-277.47Q140.68-295.93 105-295.93L105-295.93L20.30-295.93L20.30 0L44.91 0L44.91-268.04L97.00-268.04Q115.87-268.04 127.56-263.22Q139.25-258.40 144.79-246.30Q150.32-234.20 150.32-212.46L150.32-212.46L150.32-78.13L174.93-78.13ZM239.33-83.88L239.33-83.88L239.33-295.93L214.51-295.93L214.51-83.67Q214.51-61.11 209.49-49.01Q204.46-36.91 192.98-32.40Q181.49-27.89 162.01-27.89L162.01-27.89L109.31-27.89L109.31-218.41L84.70-218.41L84.70 0L168.37 0Q205.69 0 222.51-20.00Q239.33-39.99 239.33-83.88Z"/>
  </g>
</svg>